<svg width="448" height="894" viewBox="0 0 448 894" fill="none" xmlns="http://www.w3.org/2000/svg">
<g filter="url(#filter0_i)">
<path fill-rule="evenodd" clip-rule="evenodd" d="M81.4302 3.03268C29.2259 3.03268 5.28516 27.7935 5.28516 79.2072V815.447C5.28516 866.86 29.2259 891.621 81.4302 891.621H365.682C416.184 891.621 441.827 865.115 441.827 815.447V79.2072C441.827 27.7935 417.886 3.03268 365.682 3.03268H81.4302Z" fill="#879A94"/>
</g>
<path d="M81.4302 2.00038C55.1828 2.00038 35.8282 8.2243 23.048 21.1129C10.2695 33.9999 4.25285 53.3595 4.25285 79.2073V815.447C4.25285 841.294 10.2695 860.654 23.048 873.541C35.8282 886.429 55.1828 892.653 81.4302 892.653H365.682C391.105 892.653 410.446 885.98 423.426 872.886C436.404 859.794 442.859 840.448 442.859 815.447V79.2073C442.859 53.3595 436.842 33.9999 424.064 21.1129C411.284 8.2243 391.929 2.00038 365.682 2.00038H81.4302Z" stroke="#62726E" stroke-width="2.06462"/>
<path fill-rule="evenodd" clip-rule="evenodd" d="M81.7706 7.85416C32.3532 7.85416 10.1035 30.2749 10.1035 79.4923V815.161C10.1035 864.378 32.3532 886.799 81.7706 886.799H366.027C413.731 886.799 437.694 862.645 437.694 815.161V79.4923C437.694 30.2749 415.444 7.85416 366.027 7.85416H81.7706Z" fill="url(#paint0_linear)"/>
<g filter="url(#filter1_dd)">
<path fill-rule="evenodd" clip-rule="evenodd" d="M81.5339 11.9871H366.263C413.214 11.9871 433.562 32.3165 433.562 79.0946V814.181C433.562 859.234 411.491 881.288 366.263 881.288H81.5339C34.5829 881.288 14.2344 860.959 14.2344 814.181V79.0946C14.2344 32.3165 34.5829 11.9871 81.5339 11.9871Z" fill="url(#paint1_linear)"/>
</g>
<path d="M81.5222 18.1866C38.3954 18.1866 21.1201 35.4325 21.1201 78.4591V814.128C21.1201 857.154 38.3954 874.4 81.5222 874.4H366.275C407.676 874.4 426.677 855.43 426.677 814.128V78.4591C426.677 35.4325 409.402 18.1866 366.275 18.1866H81.5222Z" fill="black"/>
<g filter="url(#filter2_i)">
<path fill-rule="evenodd" clip-rule="evenodd" d="M432.875 79.1372C432.875 46.9051 423.232 27.2329 401.903 18.1179C401.734 19.4567 403.327 21.1436 405.754 23.7115C412.402 30.7478 425.3 44.3991 425.3 75.6307V817.512C425.3 848.488 413.243 861.619 406.644 868.806C404.634 870.995 403.13 872.633 402.628 874.056C422.903 864.282 432.875 844.383 432.875 814.071V79.1372ZM14.9234 813.9C14.9234 846.164 24.5667 865.856 45.8959 874.98C46.0652 873.64 44.4714 871.952 42.0452 869.381C35.3971 862.338 22.499 848.673 22.499 817.41V74.7872C22.499 43.7804 34.5556 30.6359 41.1546 23.4415C43.1647 21.25 44.6684 19.6106 45.1707 18.1866C24.8957 27.9704 14.9234 47.8892 14.9234 78.2313V813.9Z" fill="white" fill-opacity="0.78"/>
</g>
<rect opacity="0.45" x="3.21729" y="801.386" width="6.88551" height="6.20183" fill="black"/>
<rect opacity="0.45" x="3.21729" y="86.382" width="6.88551" height="6.20183" fill="black"/>
<rect opacity="0.45" x="437.003" y="801.386" width="6.88551" height="6.20183" fill="black"/>
<rect opacity="0.45" x="437.003" y="86.382" width="6.88551" height="6.20183" fill="black"/>
<path opacity="0.447803" fill-rule="evenodd" clip-rule="evenodd" d="M89.9751 886.112H96.1721V893H89.9751V886.112Z" fill="black"/>
<path opacity="0.447803" fill-rule="evenodd" clip-rule="evenodd" d="M350.925 1H357.122V7.88828H350.925V1Z" fill="black"/>
<g filter="url(#filter3_iii)">
<path fill-rule="evenodd" clip-rule="evenodd" d="M2.1849 232.842C1.47451 233.026 0.622656 233.499 0.167797 234.17C0.0741076 234.308 0 234.745 0 234.872C0 241.217 0 260.542 0 292.849C0 292.984 0.104309 293.665 0.168177 293.831C0.536261 294.784 1.17581 295.014 2.1849 295.565H3.43341C3.43341 293.829 3.45444 234.539 3.43341 232.842H2.1849Z" fill="#89A098"/>
</g>
<g filter="url(#filter4_iii)">
<path fill-rule="evenodd" clip-rule="evenodd" d="M2.1849 314.916C1.47451 315.101 0.622656 315.573 0.167797 316.244C0.0741076 316.382 0 316.82 0 316.946C0 323.291 0 342.617 0 374.923C0 375.058 0.104309 375.74 0.168177 375.905C0.536261 376.858 1.17581 377.089 2.1849 377.639H3.43341C3.43341 375.903 3.45444 316.613 3.43341 314.916H2.1849Z" fill="#89A098"/>
</g>
<g filter="url(#filter5_iii)">
<path fill-rule="evenodd" clip-rule="evenodd" d="M2.1849 170.118C0.978212 170.118 0 171.185 0 172.501V201.767C0 203.083 0.978212 204.149 2.1849 204.149H3.43341C3.43341 202.359 3.45444 171.868 3.43341 170.118H2.1849Z" fill="#89A098"/>
</g>
<g filter="url(#filter6_iii)">
<path fill-rule="evenodd" clip-rule="evenodd" d="M445.815 266.539C447.022 266.539 448 269.728 448 273.662V361.175C448 365.109 447.022 368.298 445.815 368.298H444.567C444.567 362.945 444.546 271.771 444.567 266.539H445.815Z" fill="#89A098"/>
</g>
<path fill-rule="evenodd" clip-rule="evenodd" d="M270.222 42.9737C273.645 42.9737 276.419 40.1981 276.419 36.7743C276.419 33.3504 273.645 30.5748 270.222 30.5748C266.8 30.5748 264.025 33.3504 264.025 36.7743C264.025 40.1981 266.8 42.9737 270.222 42.9737Z" fill="url(#paint2_linear)"/>
<g filter="url(#filter7_i)">
<path fill-rule="evenodd" clip-rule="evenodd" d="M270.174 39.3372C271.936 39.3372 273.364 37.9734 273.364 36.291C273.364 34.6086 271.936 33.2448 270.174 33.2448C268.413 33.2448 266.984 34.6086 266.984 36.291C266.984 37.9734 268.413 39.3372 270.174 39.3372Z" fill="url(#paint3_radial)"/>
</g>
<path d="M273.038 36.291C273.038 37.7789 271.77 39.0104 270.174 39.0104C268.579 39.0104 267.311 37.7789 267.311 36.291C267.311 34.8032 268.579 33.5716 270.174 33.5716C271.77 33.5716 273.038 34.8032 273.038 36.291Z" stroke="black" stroke-width="0.653671"/>
<g filter="url(#filter8_diiii)">
<path fill-rule="evenodd" clip-rule="evenodd" d="M270.173 39.047C271.615 39.047 272.783 37.9429 272.783 36.581C272.783 35.2191 271.615 34.115 270.173 34.115C268.732 34.115 267.563 35.2191 267.563 36.581C267.563 37.9429 268.732 39.047 270.173 39.047Z" fill="url(#paint4_radial)"/>
</g>
<path opacity="0.772913" fill-rule="evenodd" clip-rule="evenodd" d="M270.174 37.016C270.814 37.016 271.334 36.4963 271.334 35.8551C271.334 35.214 270.814 34.6942 270.174 34.6942C269.533 34.6942 269.014 35.214 269.014 35.8551C269.014 36.4963 269.533 37.016 270.174 37.016Z" fill="url(#paint5_radial)"/>
<path opacity="0.283465" fill-rule="evenodd" clip-rule="evenodd" d="M271.622 39.6272C272.263 39.6272 272.782 39.1075 272.782 38.4663C272.782 37.8252 272.263 37.3054 271.622 37.3054C270.981 37.3054 270.462 37.8252 270.462 38.4663C270.462 39.1075 270.981 39.6272 271.622 39.6272Z" fill="url(#paint6_radial)"/>
<g filter="url(#filter9_di)">
<path fill-rule="evenodd" clip-rule="evenodd" d="M270.175 34.5419C270.81 34.5419 271.412 34.8259 271.325 34.618C271.239 34.4102 270.81 34.114 270.175 34.114C269.54 34.114 269.127 34.4102 269.025 34.618C268.923 34.8259 269.54 34.5419 270.175 34.5419Z" fill="#68B9A3" fill-opacity="0.16999"/>
</g>
<g opacity="0.755422" filter="url(#filter10_di)">
<path fill-rule="evenodd" clip-rule="evenodd" d="M270.173 37.9081C270.653 37.9081 271.043 37.8056 271.043 38.0406C271.043 38.2755 270.653 38.466 270.173 38.466C269.692 38.466 269.303 38.2755 269.303 38.0406C269.303 37.8056 269.692 37.9081 270.173 37.9081Z" fill="#52735A" fill-opacity="0.20419"/>
</g>
<g filter="url(#filter11_d)">
<path fill-rule="evenodd" clip-rule="evenodd" d="M270.174 37.3055C270.814 37.3055 271.334 36.8508 271.334 36.2899C271.334 35.729 270.814 35.2743 270.174 35.2743C269.533 35.2743 269.014 35.729 269.014 36.2899C269.014 36.8508 269.533 37.3055 270.174 37.3055Z" fill="white" fill-opacity="0.570171" style="mix-blend-mode:overlay"/>
</g>
<g filter="url(#filter12_d)">
<path fill-rule="evenodd" clip-rule="evenodd" d="M270.318 37.3055C270.878 37.3055 271.333 36.8508 271.333 36.2899C271.333 35.729 270.878 35.2743 270.318 35.2743C269.757 35.2743 269.303 35.729 269.303 36.2899C269.303 36.8508 269.757 37.3055 270.318 37.3055Z" fill="black" fill-opacity="0.570171" style="mix-blend-mode:overlay"/>
</g>
<g filter="url(#filter13_ii)">
<path fill-rule="evenodd" clip-rule="evenodd" d="M270.173 37.3059C270.653 37.3059 271.043 36.9161 271.043 36.4354C271.043 35.9546 270.653 35.5648 270.173 35.5648C269.692 35.5648 269.303 35.9546 269.303 36.4354C269.303 36.9161 269.692 37.3059 270.173 37.3059Z" fill="url(#paint7_radial)"/>
</g>
<g opacity="0.391966" filter="url(#filter14_f)">
<path fill-rule="evenodd" clip-rule="evenodd" d="M270.172 36.84C270.493 36.84 270.752 36.5829 270.752 36.84C270.752 37.097 270.493 37.3054 270.172 37.3054C269.852 37.3054 269.593 37.097 269.593 36.84C269.593 36.5829 269.852 36.84 270.172 36.84Z" fill="#A2B9A7"/>
</g>
<g opacity="0.755422" filter="url(#filter15_di)">
<path fill-rule="evenodd" clip-rule="evenodd" d="M270.173 36.7362C270.333 36.7362 270.463 36.6849 270.463 36.8024C270.463 36.92 270.333 37.0153 270.173 37.0153C270.013 37.0153 269.883 36.92 269.883 36.8024C269.883 36.6849 270.013 36.7362 270.173 36.7362Z" fill="#527073"/>
</g>
<g opacity="0.980352" filter="url(#filter16_di)">
<path fill-rule="evenodd" clip-rule="evenodd" d="M270.028 36.0834C270.266 36.0834 270.492 36.2435 270.459 36.0454C270.427 35.8472 270.266 35.5648 270.028 35.5648C269.79 35.5648 269.635 35.8472 269.597 36.0454C269.559 36.2435 269.79 36.0834 270.028 36.0834Z" fill="#E4D3F2" fill-opacity="0.526183"/>
</g>
<g opacity="0.657241" filter="url(#filter17_f)">
<path fill-rule="evenodd" clip-rule="evenodd" d="M270.028 38.1755C270.428 38.1755 270.753 37.9158 270.753 37.5954C270.753 37.275 270.428 37.0153 270.028 37.0153C269.627 37.0153 269.303 37.275 269.303 37.5954C269.303 37.9158 269.627 38.1755 270.028 38.1755Z" fill="#76DB82"/>
</g>
<path opacity="0.170243" fill-rule="evenodd" clip-rule="evenodd" d="M268.579 37.3077C269.62 37.3077 270.464 36.4634 270.464 35.4219C270.464 34.3804 269.62 33.5362 268.579 33.5362C267.538 33.5362 266.694 34.3804 266.694 35.4219C266.694 36.4634 267.538 37.3077 268.579 37.3077Z" fill="url(#paint8_radial)"/>
<g opacity="0.801364">
<g filter="url(#filter18_d)">
<rect x="196.013" y="33.3408" width="54.4288" height="7.08023" rx="3.54012" fill="#151414"/>
</g>
<mask id="mask0" mask-type="alpha" maskUnits="userSpaceOnUse" x="196" y="33" width="55" height="8">
<rect x="196.013" y="33.3408" width="54.4288" height="7.08023" rx="3.54012" fill="white"/>
</mask>
<g mask="url(#mask0)">
<path opacity="0.05" d="M163.114 27.9151L182.593 47.4026M166.721 27.9151L186.201 47.4026M170.329 27.9151L189.808 47.4026M173.936 27.9151L193.415 47.4026M177.543 27.9151L197.023 47.4026M200.63 47.4026L181.151 27.9151L161.671 47.4026M204.237 47.4026L184.758 27.9151L165.278 47.4026M207.845 47.4026L188.365 27.9151L168.886 47.4026M211.452 47.4026L191.973 27.9151L172.493 47.4026M215.059 47.4026L195.58 27.9151L176.1 47.4026M218.667 47.4026L199.187 27.9151L179.708 47.4026M222.274 47.4026L202.795 27.9151L183.315 47.4026M225.881 47.4026L206.402 27.9151L186.922 47.4026M229.489 47.4026L210.009 27.9151L190.53 47.4026M233.096 47.4026L213.617 27.9151L194.137 47.4026M236.704 47.4026L217.224 27.9151L197.744 47.4026M240.311 47.4026L220.831 27.9151L201.352 47.4026M243.918 47.4026L224.439 27.9151L204.959 47.4026M247.526 47.4026L228.046 27.9151L208.566 47.4026M251.133 47.4026L231.653 27.9151L212.174 47.4026M254.74 47.4026L235.261 27.9151L215.781 47.4026M258.348 47.4026L238.868 27.9151L219.388 47.4026M261.955 47.4026L242.475 27.9151L222.996 47.4026M260.512 27.9151L241.032 47.4026M256.905 27.9151L237.425 47.4026M253.297 27.9151L233.818 47.4026M249.69 27.9151L230.21 47.4026M246.083 27.9151L226.603 47.4026" stroke="white" stroke-width="0.688205"/>
</g>
</g>
<path fill-rule="evenodd" clip-rule="evenodd" d="M115.737 35.9481C115.737 45.8577 123.039 57.9741 139.84 57.9741H307.182C323.983 57.9741 331.285 45.8577 331.285 36.2922C331.285 31.5239 331.285 27 339.204 27H372.604C400.517 27 417.366 43.8413 417.366 71.7404V819.937C417.366 847.836 400.517 864.678 372.604 864.678H74.7624C46.8496 864.678 30.0001 847.836 30.0001 819.937V71.7404C30.0001 43.8413 46.8496 27 74.7624 27H107.818C115.737 27 115.737 31.5239 115.737 35.9481Z" fill="#121212"/>
<path d="M92.2305 404.444L91.624 407.635C94.0146 405.104 96.9062 403.873 100.299 403.943C102.109 403.979 103.639 404.392 104.887 405.183C106.152 405.974 107.022 407.09 107.497 408.531C110.169 405.402 113.324 403.873 116.963 403.943C119.811 404.014 121.911 404.972 123.265 406.817C124.618 408.663 125.119 411.142 124.768 414.253L121.63 433H116.884L119.995 414.2C120.101 413.286 120.101 412.451 119.995 411.695C119.661 409.305 118.097 408.083 115.302 408.03C113.562 407.995 111.979 408.54 110.556 409.665C109.149 410.772 108.244 412.231 107.84 414.042L104.597 433H99.7979L102.962 414.227C103.19 412.275 102.892 410.772 102.065 409.718C101.257 408.663 99.9912 408.118 98.2686 408.083C95.2979 408.013 92.9336 409.366 91.1758 412.144L87.5635 433H82.791L87.748 404.471L92.2305 404.444ZM144.859 403.943C147.25 403.979 149.298 404.629 151.003 405.895C152.708 407.16 153.965 408.909 154.773 411.142C155.6 413.356 155.881 415.782 155.617 418.419L155.564 418.999C155.23 421.776 154.404 424.29 153.086 426.54C151.768 428.772 150.062 430.513 147.971 431.761C145.879 433.009 143.585 433.598 141.089 433.527C138.716 433.492 136.668 432.842 134.945 431.576C133.24 430.311 131.992 428.588 131.201 426.408C130.41 424.229 130.129 421.829 130.357 419.21C130.621 416.257 131.421 413.603 132.757 411.247C134.093 408.892 135.807 407.072 137.898 405.789C140.008 404.488 142.328 403.873 144.859 403.943ZM135.156 419.236C135.033 420.344 135.033 421.495 135.156 422.69C135.332 424.765 135.947 426.417 137.002 427.647C138.074 428.878 139.498 429.52 141.273 429.572C142.855 429.625 144.314 429.238 145.65 428.412C146.986 427.568 148.111 426.303 149.025 424.615C149.939 422.928 150.528 421.056 150.792 418.999C150.933 417.382 150.959 416.02 150.871 414.912C150.66 412.785 150.019 411.106 148.946 409.876C147.874 408.646 146.45 407.995 144.675 407.925C142.214 407.872 140.122 408.839 138.399 410.825C136.677 412.812 135.613 415.413 135.209 418.63L135.156 419.236ZM175.023 403.943C177.414 403.979 179.462 404.629 181.167 405.895C182.872 407.16 184.129 408.909 184.938 411.142C185.764 413.356 186.045 415.782 185.781 418.419L185.729 418.999C185.395 421.776 184.568 424.29 183.25 426.54C181.932 428.772 180.227 430.513 178.135 431.761C176.043 433.009 173.749 433.598 171.253 433.527C168.88 433.492 166.832 432.842 165.109 431.576C163.404 430.311 162.156 428.588 161.365 426.408C160.574 424.229 160.293 421.829 160.521 419.21C160.785 416.257 161.585 413.603 162.921 411.247C164.257 408.892 165.971 407.072 168.062 405.789C170.172 404.488 172.492 403.873 175.023 403.943ZM165.32 419.236C165.197 420.344 165.197 421.495 165.32 422.69C165.496 424.765 166.111 426.417 167.166 427.647C168.238 428.878 169.662 429.52 171.438 429.572C173.02 429.625 174.479 429.238 175.814 428.412C177.15 427.568 178.275 426.303 179.189 424.615C180.104 422.928 180.692 421.056 180.956 418.999C181.097 417.382 181.123 416.02 181.035 414.912C180.824 412.785 180.183 411.106 179.11 409.876C178.038 408.646 176.614 407.995 174.839 407.925C172.378 407.872 170.286 408.839 168.563 410.825C166.841 412.812 165.777 415.413 165.373 418.63L165.32 419.236ZM198.807 404.444L198.121 408.057C200.688 405.244 203.605 403.873 206.875 403.943C209.564 404.014 211.551 404.945 212.834 406.738C214.117 408.531 214.592 411.054 214.258 414.306L211.146 433H206.374L209.512 414.227C209.617 413.365 209.626 412.565 209.538 411.827C209.239 409.366 207.789 408.109 205.188 408.057C202.322 408.004 199.809 409.533 197.646 412.645L194.113 433H189.341L194.298 404.471L198.807 404.444ZM227.916 404.444L227.31 407.635C229.7 405.104 232.592 403.873 235.984 403.943C237.795 403.979 239.324 404.392 240.572 405.183C241.838 405.974 242.708 407.09 243.183 408.531C245.854 405.402 249.01 403.873 252.648 403.943C255.496 404.014 257.597 404.972 258.95 406.817C260.304 408.663 260.805 411.142 260.453 414.253L257.315 433H252.569L255.681 414.2C255.786 413.286 255.786 412.451 255.681 411.695C255.347 409.305 253.782 408.083 250.987 408.03C249.247 407.995 247.665 408.54 246.241 409.665C244.835 410.772 243.93 412.231 243.525 414.042L240.282 433H235.483L238.647 414.227C238.876 412.275 238.577 410.772 237.751 409.718C236.942 408.663 235.677 408.118 233.954 408.083C230.983 408.013 228.619 409.366 226.861 412.144L223.249 433H218.477L223.434 404.471L227.916 404.444ZM277.038 433.527C273.487 433.457 270.71 432.147 268.706 429.599C266.702 427.05 265.858 423.789 266.175 419.816L266.307 418.683C266.605 415.853 267.44 413.269 268.812 410.931C270.2 408.593 271.888 406.835 273.874 405.657C275.86 404.462 278.005 403.891 280.308 403.943C283.243 404.014 285.546 404.989 287.216 406.87C288.886 408.751 289.8 411.3 289.958 414.517C290.011 415.659 289.976 416.802 289.853 417.944L289.562 420.133H270.921C270.604 422.717 271.026 424.914 272.187 426.725C273.364 428.535 275.113 429.476 277.434 429.546C280.246 429.616 282.848 428.351 285.238 425.749L287.98 428.069C286.785 429.792 285.238 431.146 283.34 432.13C281.459 433.097 279.358 433.562 277.038 433.527ZM280.07 407.925C278.102 407.872 276.379 408.54 274.902 409.929C273.443 411.317 272.283 413.383 271.422 416.125L285.291 416.151L285.396 415.729C285.678 413.515 285.317 411.678 284.315 410.219C283.331 408.742 281.916 407.978 280.07 407.925ZM297.868 433H293.122L300.136 392.5H304.908L297.868 433ZM321.52 403.943C323.91 403.979 325.958 404.629 327.663 405.895C329.368 407.16 330.625 408.909 331.434 411.142C332.26 413.356 332.541 415.782 332.277 418.419L332.225 418.999C331.891 421.776 331.064 424.29 329.746 426.54C328.428 428.772 326.723 430.513 324.631 431.761C322.539 433.009 320.245 433.598 317.749 433.527C315.376 433.492 313.328 432.842 311.605 431.576C309.9 430.311 308.652 428.588 307.861 426.408C307.07 424.229 306.789 421.829 307.018 419.21C307.281 416.257 308.081 413.603 309.417 411.247C310.753 408.892 312.467 407.072 314.559 405.789C316.668 404.488 318.988 403.873 321.52 403.943ZM311.816 419.236C311.693 420.344 311.693 421.495 311.816 422.69C311.992 424.765 312.607 426.417 313.662 427.647C314.734 428.878 316.158 429.52 317.934 429.572C319.516 429.625 320.975 429.238 322.311 428.412C323.646 427.568 324.771 426.303 325.686 424.615C326.6 422.928 327.188 421.056 327.452 418.999C327.593 417.382 327.619 416.02 327.531 414.912C327.32 412.785 326.679 411.106 325.606 409.876C324.534 408.646 323.11 407.995 321.335 407.925C318.874 407.872 316.782 408.839 315.06 410.825C313.337 412.812 312.273 415.413 311.869 418.63L311.816 419.236ZM345.303 404.444L344.617 408.057C347.184 405.244 350.102 403.873 353.371 403.943C356.061 404.014 358.047 404.945 359.33 406.738C360.613 408.531 361.088 411.054 360.754 414.306L357.643 433H352.87L356.008 414.227C356.113 413.365 356.122 412.565 356.034 411.827C355.735 409.366 354.285 408.109 351.684 408.057C348.818 408.004 346.305 409.533 344.143 412.645L340.609 433H335.837L340.794 404.471L345.303 404.444Z" fill="#C6D65B"/>
<path d="M102.597 459.046L101.2 459.043L104.428 478.035C104.619 479.23 104.678 480.364 104.605 481.436C104.461 483.141 103.861 484.449 102.804 485.361C101.765 486.273 100.322 486.718 98.4768 486.697C96.016 486.656 93.6714 485.676 91.4431 483.755C89.2324 481.852 87.7606 479.616 87.0279 477.048L83.9291 459.006L82.5052 459.003L87.348 487.543L88.7982 487.546L87.5472 480.793C88.9659 483.134 90.632 484.931 92.5453 486.183C94.4586 487.453 96.4523 488.09 98.5266 488.094C100.882 488.099 102.694 487.514 103.962 486.339C105.248 485.182 105.928 483.522 106.003 481.36C107.264 483.42 108.895 485.058 110.897 486.275C112.898 487.51 115.032 488.13 117.3 488.135C119.497 488.139 121.23 487.572 122.498 486.432C123.766 485.292 124.499 483.677 124.697 481.585C124.805 480.249 124.738 478.852 124.495 477.392L121.37 459.087L119.973 459.084L123.097 477.548C123.306 478.761 123.382 479.93 123.327 481.055C123.235 482.918 122.669 484.332 121.63 485.296C120.609 486.279 119.149 486.759 117.25 486.737C115.598 486.681 113.955 486.264 112.322 485.487C110.707 484.71 109.312 483.653 108.137 482.314C106.979 480.993 106.218 479.568 105.852 478.038L102.597 459.046ZM130.435 473.925C130.869 476.58 131.751 478.999 133.083 481.181C134.414 483.364 136.08 485.073 138.081 486.307C140.082 487.56 142.27 488.189 144.643 488.194C146.576 488.198 148.291 487.771 149.787 486.913C151.283 486.055 152.472 484.774 153.355 483.071C154.237 481.385 154.742 479.514 154.87 477.458C154.925 476.263 154.823 474.733 154.563 472.869C154.13 470.214 153.238 467.786 151.89 465.586C150.558 463.386 148.892 461.669 146.891 460.434C144.907 459.217 142.738 458.605 140.382 458.6C138.431 458.596 136.707 459.023 135.211 459.881C133.733 460.757 132.544 462.029 131.644 463.697C130.761 465.382 130.265 467.271 130.155 469.363C130.082 470.54 130.175 472.061 130.435 473.925ZM131.687 468.285C132.044 465.737 132.988 463.717 134.521 462.226C136.053 460.753 137.997 460.019 140.353 460.024C143.113 460.03 145.598 461.002 147.808 462.941C150.037 464.879 151.639 467.493 152.617 470.782C153.419 473.508 153.651 476.084 153.312 478.509C152.92 481.057 151.957 483.068 150.425 484.541C148.91 486.032 146.992 486.775 144.672 486.77C141.912 486.764 139.418 485.774 137.19 483.801C134.962 481.845 133.359 479.248 132.382 476.012C131.579 473.321 131.347 470.745 131.687 468.285ZM159.544 473.987C159.978 476.643 160.861 479.062 162.192 481.244C163.523 483.427 165.189 485.135 167.191 486.37C169.192 487.623 171.379 488.251 173.752 488.256C175.686 488.261 177.4 487.834 178.896 486.975C180.392 486.117 181.582 484.837 182.464 483.134C183.347 481.448 183.852 479.577 183.979 477.521C184.035 476.325 183.932 474.796 183.673 472.932C183.239 470.277 182.348 467.849 180.999 465.649C179.668 463.449 178.002 461.731 176 460.497C174.017 459.279 171.847 458.668 169.492 458.663C167.54 458.659 165.817 459.086 164.321 459.944C162.842 460.82 161.653 462.092 160.753 463.76C159.87 465.445 159.374 467.334 159.264 469.425C159.191 470.603 159.285 472.124 159.544 473.987ZM160.796 468.348C161.153 465.799 162.098 463.78 163.63 462.289C165.163 460.816 167.107 460.082 169.462 460.087C172.222 460.093 174.707 461.065 176.918 463.003C179.146 464.942 180.749 467.556 181.726 470.845C182.529 473.571 182.761 476.147 182.421 478.572C182.029 481.12 181.067 483.131 179.534 484.604C178.019 486.095 176.102 486.838 173.781 486.833C171.022 486.827 168.528 485.837 166.3 483.863C164.071 481.907 162.468 479.311 161.491 476.075C160.688 473.383 160.457 470.808 160.796 468.348ZM193.279 481.127C194.698 483.432 196.373 485.203 198.304 486.437C200.235 487.689 202.228 488.318 204.285 488.322C206.465 488.327 208.18 487.768 209.43 486.646C210.681 485.524 211.405 483.899 211.603 481.773C211.711 480.437 211.644 479.039 211.401 477.58L208.276 459.274L206.853 459.271L209.977 477.577C210.186 478.808 210.271 480.021 210.233 481.216C210.141 483.079 209.584 484.502 208.563 485.484C207.559 486.466 206.116 486.946 204.235 486.925C201.827 486.884 199.509 485.939 197.281 484.088C195.07 482.255 193.571 480.064 192.786 477.513L189.661 459.234L188.237 459.231L193.08 487.771L194.504 487.774L193.279 481.127ZM237.017 459.336L235.619 459.333L238.848 478.324C239.039 479.52 239.098 480.654 239.025 481.726C238.881 483.431 238.28 484.739 237.224 485.651C236.184 486.563 234.742 487.008 232.896 486.986C230.436 486.946 228.091 485.965 225.863 484.045C223.652 482.141 222.18 479.906 221.447 477.338L218.349 459.296L216.925 459.293L221.768 487.833L223.218 487.836L221.967 481.083C223.386 483.424 225.052 485.22 226.965 486.473C228.878 487.742 230.872 488.38 232.946 488.384C235.302 488.389 237.113 487.804 238.382 486.629C239.667 485.472 240.348 483.812 240.423 481.65C241.684 483.709 243.315 485.348 245.316 486.565C247.318 487.8 249.452 488.42 251.72 488.424C253.917 488.429 255.649 487.862 256.918 486.722C258.186 485.582 258.919 483.966 259.117 481.875C259.225 480.539 259.158 479.142 258.915 477.682L255.79 459.377L254.393 459.374L257.517 477.837C257.725 479.051 257.802 480.22 257.747 481.345C257.655 483.208 257.089 484.622 256.05 485.586C255.028 486.568 253.568 487.049 251.67 487.027C250.018 486.971 248.375 486.554 246.742 485.777C245.126 485 243.731 483.942 242.556 482.604C241.399 481.283 240.637 479.858 240.272 478.328L237.017 459.336ZM274.855 458.89C272.569 458.885 270.599 459.523 268.944 460.802C267.289 462.082 266.09 463.828 265.347 466.042C264.621 468.273 264.432 470.61 264.778 473.054L264.986 474.373C265.403 476.94 266.294 479.342 267.66 481.577C269.044 483.812 270.684 485.521 272.58 486.703C274.476 487.885 276.505 488.478 278.667 488.483C281.55 488.489 283.811 487.43 285.45 485.307C287.089 483.183 287.79 480.46 287.551 477.137L287.473 476.32L287.24 474.658L266.515 474.614L266.228 473.057C265.985 471.58 265.98 470.086 266.212 468.575C266.604 466.062 267.566 464.051 269.099 462.543C270.649 461.052 272.558 460.3 274.825 460.288C278.112 460.26 281.071 461.567 283.702 464.209L284.653 463.473C282.058 460.426 278.792 458.899 274.855 458.89ZM278.67 487.059C275.963 487.053 273.539 486.028 271.399 483.984C269.277 481.958 267.7 479.309 266.67 476.038L285.918 476.079L285.996 476.422C286.222 477.688 286.237 478.954 286.041 480.219C285.72 482.293 284.89 483.952 283.552 485.197C282.231 486.442 280.603 487.063 278.67 487.059ZM292.889 459.457L291.465 459.453L298.338 499.968L299.762 499.971L292.889 459.457ZM302.612 474.296C303.046 476.951 303.929 479.37 305.26 481.553C306.591 483.735 308.257 485.444 310.259 486.679C312.26 487.931 314.447 488.56 316.82 488.565C318.754 488.569 320.468 488.142 321.964 487.284C323.46 486.426 324.65 485.145 325.532 483.442C326.415 481.756 326.92 479.885 327.047 477.829C327.103 476.634 327 475.104 326.741 473.24C326.307 470.585 325.416 468.158 324.067 465.957C322.736 463.757 321.07 462.04 319.068 460.805C317.085 459.588 314.915 458.977 312.56 458.972C310.608 458.967 308.885 459.394 307.389 460.252C305.91 461.128 304.721 462.4 303.821 464.068C302.938 465.754 302.442 467.642 302.332 469.734C302.259 470.911 302.353 472.432 302.612 474.296ZM303.864 468.656C304.221 466.108 305.166 464.088 306.698 462.598C308.231 461.124 310.175 460.39 312.53 460.395C315.29 460.401 317.775 461.373 319.986 463.312C322.214 465.25 323.817 467.864 324.794 471.153C325.597 473.88 325.829 476.455 325.489 478.88C325.097 481.428 324.135 483.439 322.602 484.912C321.087 486.403 319.17 487.146 316.849 487.141C314.09 487.135 311.596 486.145 309.368 484.172C307.139 482.216 305.537 479.62 304.559 476.383C303.756 473.692 303.525 471.116 303.864 468.656ZM336.347 481.435C337.766 483.741 339.441 485.511 341.372 486.746C343.303 487.998 345.296 488.626 347.353 488.631C349.533 488.635 351.248 488.077 352.498 486.954C353.749 485.832 354.473 484.208 354.671 482.081C354.779 480.745 354.712 479.348 354.469 477.888L351.344 459.583L349.921 459.579L353.045 477.885C353.254 479.116 353.339 480.329 353.301 481.524C353.209 483.387 352.652 484.81 351.631 485.792C350.627 486.774 349.184 487.255 347.303 487.233C344.895 487.193 342.577 486.247 340.349 484.397C338.138 482.564 336.639 480.372 335.854 477.822L332.729 459.542L331.305 459.539L336.148 488.079L337.572 488.082L336.347 481.435Z" fill="#C6D65B"/>
<rect opacity="0.35" x="374.833" y="47.2273" width="21" height="10.5909" rx="2.16667" stroke="white"/>
<path opacity="0.4" d="M397.333 50.4773V54.5682C398.138 54.2217 398.661 53.4157 398.661 52.5227C398.661 51.6297 398.138 50.8237 397.333 50.4773" fill="white"/>
<rect x="376.333" y="48.7727" width="18" height="7.5" rx="1.33333" fill="white"/>
<path fill-rule="evenodd" clip-rule="evenodd" d="M361.667 49.0609C363.892 49.061 366.031 49.9346 367.644 51.501C367.765 51.6219 367.959 51.6204 368.079 51.4975L369.24 50.3006C369.3 50.2383 369.334 50.1539 369.333 50.0661C369.333 49.9783 369.298 49.8944 369.237 49.8328C365.005 45.6885 358.329 45.6885 354.097 49.8328C354.035 49.8943 354.001 49.9783 354 50.0661C353.999 50.1539 354.033 50.2383 354.094 50.3006L355.255 51.4975C355.374 51.6206 355.568 51.6221 355.69 51.501C357.302 49.9345 359.442 49.0609 361.667 49.0609ZM361.667 52.9551C362.889 52.955 364.068 53.4193 364.974 54.2577C365.097 54.3767 365.29 54.3741 365.409 54.2519L366.569 53.0549C366.63 52.9921 366.663 52.907 366.663 52.8185C366.662 52.73 366.626 52.6455 366.564 52.584C363.805 49.9613 359.532 49.9613 356.773 52.584C356.71 52.6455 356.675 52.73 356.674 52.8185C356.673 52.9071 356.707 52.9922 356.768 53.0549L357.927 54.2519C358.047 54.3741 358.24 54.3767 358.362 54.2577C359.268 53.4198 360.446 52.9556 361.667 52.9551ZM363.989 55.5751C363.991 55.6639 363.957 55.7494 363.895 55.8116L361.89 57.8796C361.831 57.9403 361.751 57.9745 361.667 57.9745C361.583 57.9745 361.503 57.9403 361.445 57.8796L359.439 55.8116C359.377 55.7494 359.343 55.6638 359.345 55.5751C359.347 55.4863 359.384 55.4023 359.449 55.3428C360.729 54.2359 362.605 54.2359 363.886 55.3428C363.95 55.4023 363.988 55.4864 363.989 55.5751Z" fill="white"/>
<path fill-rule="evenodd" clip-rule="evenodd" d="M348 47.0682H347C346.448 47.0682 346 47.5261 346 48.0909V56.9545C346 57.5194 346.448 57.9773 347 57.9773H348C348.552 57.9773 349 57.5194 349 56.9545V48.0909C349 47.5261 348.552 47.0682 348 47.0682ZM342.333 49.4545H343.333C343.886 49.4545 344.333 49.9124 344.333 50.4773V56.9545C344.333 57.5194 343.886 57.9773 343.333 57.9773H342.333C341.781 57.9773 341.333 57.5194 341.333 56.9545V50.4773C341.333 49.9124 341.781 49.4545 342.333 49.4545ZM338.667 51.8409H337.667C337.114 51.8409 336.667 52.2988 336.667 52.8636V56.9545C336.667 57.5194 337.114 57.9773 337.667 57.9773H338.667C339.219 57.9773 339.667 57.5194 339.667 56.9545V52.8636C339.667 52.2988 339.219 51.8409 338.667 51.8409ZM334 53.8864H333C332.448 53.8864 332 54.3442 332 54.9091V56.9545C332 57.5194 332.448 57.9773 333 57.9773H334C334.552 57.9773 335 57.5194 335 56.9545V54.9091C335 54.3442 334.552 53.8864 334 53.8864Z" fill="white"/>
<path d="M75.1341 57.4154C77.8221 57.4154 79.4187 55.3134 79.4187 51.7465C79.4187 48.2455 77.7195 46.3266 75.1927 46.3266C72.8929 46.3266 71.2669 47.872 71.2669 50.0326C71.2669 52.0614 72.7317 53.5409 74.7459 53.5409C75.9837 53.5409 76.9871 52.9696 77.4852 51.9662H77.6097C77.5877 54.4491 76.7015 55.87 75.1561 55.87C74.2479 55.87 73.5228 55.372 73.2957 54.5663H71.4134C71.721 56.2875 73.2005 57.4154 75.1341 57.4154ZM75.2 52.0834C73.9695 52.0834 73.1199 51.2191 73.1199 49.974C73.1199 48.7802 74.0135 47.8647 75.2073 47.8647C76.4012 47.8647 77.2947 48.7948 77.2947 50.0107C77.2947 51.2118 76.4231 52.0834 75.2 52.0834ZM82.4366 50.3183C83.1324 50.3183 83.6085 49.8349 83.6085 49.183C83.6085 48.5312 83.1324 48.0478 82.4366 48.0478C81.7481 48.0478 81.2647 48.5312 81.2647 49.183C81.2647 49.8349 81.7481 50.3183 82.4366 50.3183ZM82.4366 55.6942C83.1324 55.6942 83.6085 55.2035 83.6085 54.559C83.6085 53.9071 83.1324 53.4237 82.4366 53.4237C81.7481 53.4237 81.2647 53.9071 81.2647 54.559C81.2647 55.2035 81.7481 55.6942 82.4366 55.6942ZM90.6107 57.1591H92.4198V55.1303H93.848V53.5702H92.4198V46.5902H89.7538C88.3183 48.7729 86.8168 51.2045 85.4472 53.5849V55.1303H90.6107V57.1591ZM87.1977 53.5043C88.2304 51.7099 89.4535 49.7543 90.5375 48.099H90.64V53.6142H87.1977V53.5043ZM97.8767 57.1591H99.7663V46.5902H97.884L95.1228 48.5312V50.3109L97.7521 48.4506H97.8767V57.1591Z" fill="white"/>
<defs>
<filter id="filter0_i" x="3.22054" y="0.968079" width="440.671" height="892.718" filterUnits="userSpaceOnUse" color-interpolation-filters="sRGB">
<feFlood flood-opacity="0" result="BackgroundImageFix"/>
<feBlend mode="normal" in="SourceGraphic" in2="BackgroundImageFix" result="shape"/>
<feColorMatrix in="SourceAlpha" type="matrix" values="0 0 0 0 0 0 0 0 0 0 0 0 0 0 0 0 0 0 127 0" result="hardAlpha"/>
<feOffset/>
<feGaussianBlur stdDeviation="1.33333"/>
<feComposite in2="hardAlpha" operator="arithmetic" k2="-1" k3="1"/>
<feColorMatrix type="matrix" values="0 0 0 0 0 0 0 0 0 0 0 0 0 0 0 0 0 0 0.5 0"/>
<feBlend mode="normal" in2="shape" result="effect1_innerShadow"/>
</filter>
<filter id="filter1_dd" x="14.2344" y="10.6537" width="419.328" height="871.968" filterUnits="userSpaceOnUse" color-interpolation-filters="sRGB">
<feFlood flood-opacity="0" result="BackgroundImageFix"/>
<feColorMatrix in="SourceAlpha" type="matrix" values="0 0 0 0 0 0 0 0 0 0 0 0 0 0 0 0 0 0 127 0"/>
<feOffset dy="1.33333"/>
<feColorMatrix type="matrix" values="0 0 0 0 0 0 0 0 0 0 0 0 0 0 0 0 0 0 0.5 0"/>
<feBlend mode="normal" in2="BackgroundImageFix" result="effect1_dropShadow"/>
<feColorMatrix in="SourceAlpha" type="matrix" values="0 0 0 0 0 0 0 0 0 0 0 0 0 0 0 0 0 0 127 0"/>
<feOffset dy="-1.33333"/>
<feColorMatrix type="matrix" values="0 0 0 0 0 0 0 0 0 0 0 0 0 0 0 0 0 0 0.5 0"/>
<feBlend mode="normal" in2="effect1_dropShadow" result="effect2_dropShadow"/>
<feBlend mode="normal" in="SourceGraphic" in2="effect2_dropShadow" result="shape"/>
</filter>
<filter id="filter2_i" x="14.9234" y="18.1179" width="421.952" height="856.862" filterUnits="userSpaceOnUse" color-interpolation-filters="sRGB">
<feFlood flood-opacity="0" result="BackgroundImageFix"/>
<feBlend mode="normal" in="SourceGraphic" in2="BackgroundImageFix" result="shape"/>
<feColorMatrix in="SourceAlpha" type="matrix" values="0 0 0 0 0 0 0 0 0 0 0 0 0 0 0 0 0 0 127 0" result="hardAlpha"/>
<feOffset dx="4"/>
<feGaussianBlur stdDeviation="2.83333"/>
<feComposite in2="hardAlpha" operator="arithmetic" k2="-1" k3="1"/>
<feColorMatrix type="matrix" values="0 0 0 0 0 0 0 0 0 0 0 0 0 0 0 0 0 0 0.6 0"/>
<feBlend mode="normal" in2="shape" result="effect1_innerShadow"/>
</filter>
<filter id="filter3_iii" x="0" y="231.508" width="3.44276" height="65.3901" filterUnits="userSpaceOnUse" color-interpolation-filters="sRGB">
<feFlood flood-opacity="0" result="BackgroundImageFix"/>
<feBlend mode="normal" in="SourceGraphic" in2="BackgroundImageFix" result="shape"/>
<feColorMatrix in="SourceAlpha" type="matrix" values="0 0 0 0 0 0 0 0 0 0 0 0 0 0 0 0 0 0 127 0" result="hardAlpha"/>
<feOffset dx="1.33333"/>
<feComposite in2="hardAlpha" operator="arithmetic" k2="-1" k3="1"/>
<feColorMatrix type="matrix" values="0 0 0 0 1 0 0 0 0 1 0 0 0 0 1 0 0 0 0.644843 0"/>
<feBlend mode="normal" in2="shape" result="effect1_innerShadow"/>
<feColorMatrix in="SourceAlpha" type="matrix" values="0 0 0 0 0 0 0 0 0 0 0 0 0 0 0 0 0 0 127 0" result="hardAlpha"/>
<feOffset dy="2.66667"/>
<feGaussianBlur stdDeviation="0.666667"/>
<feComposite in2="hardAlpha" operator="arithmetic" k2="-1" k3="1"/>
<feColorMatrix type="matrix" values="0 0 0 0 0.384314 0 0 0 0 0.388235 0 0 0 0 0.388235 0 0 0 1 0"/>
<feBlend mode="normal" in2="effect1_innerShadow" result="effect2_innerShadow"/>
<feColorMatrix in="SourceAlpha" type="matrix" values="0 0 0 0 0 0 0 0 0 0 0 0 0 0 0 0 0 0 127 0" result="hardAlpha"/>
<feOffset dy="-2.66667"/>
<feGaussianBlur stdDeviation="0.666667"/>
<feComposite in2="hardAlpha" operator="arithmetic" k2="-1" k3="1"/>
<feColorMatrix type="matrix" values="0 0 0 0 0.384314 0 0 0 0 0.388235 0 0 0 0 0.388235 0 0 0 1 0"/>
<feBlend mode="normal" in2="effect2_innerShadow" result="effect3_innerShadow"/>
</filter>
<filter id="filter4_iii" x="0" y="313.583" width="3.44276" height="65.3901" filterUnits="userSpaceOnUse" color-interpolation-filters="sRGB">
<feFlood flood-opacity="0" result="BackgroundImageFix"/>
<feBlend mode="normal" in="SourceGraphic" in2="BackgroundImageFix" result="shape"/>
<feColorMatrix in="SourceAlpha" type="matrix" values="0 0 0 0 0 0 0 0 0 0 0 0 0 0 0 0 0 0 127 0" result="hardAlpha"/>
<feOffset dx="1.33333"/>
<feComposite in2="hardAlpha" operator="arithmetic" k2="-1" k3="1"/>
<feColorMatrix type="matrix" values="0 0 0 0 1 0 0 0 0 1 0 0 0 0 1 0 0 0 0.644843 0"/>
<feBlend mode="normal" in2="shape" result="effect1_innerShadow"/>
<feColorMatrix in="SourceAlpha" type="matrix" values="0 0 0 0 0 0 0 0 0 0 0 0 0 0 0 0 0 0 127 0" result="hardAlpha"/>
<feOffset dy="2.66667"/>
<feGaussianBlur stdDeviation="0.666667"/>
<feComposite in2="hardAlpha" operator="arithmetic" k2="-1" k3="1"/>
<feColorMatrix type="matrix" values="0 0 0 0 0.384314 0 0 0 0 0.388235 0 0 0 0 0.388235 0 0 0 1 0"/>
<feBlend mode="normal" in2="effect1_innerShadow" result="effect2_innerShadow"/>
<feColorMatrix in="SourceAlpha" type="matrix" values="0 0 0 0 0 0 0 0 0 0 0 0 0 0 0 0 0 0 127 0" result="hardAlpha"/>
<feOffset dy="-2.66667"/>
<feGaussianBlur stdDeviation="0.666667"/>
<feComposite in2="hardAlpha" operator="arithmetic" k2="-1" k3="1"/>
<feColorMatrix type="matrix" values="0 0 0 0 0.384314 0 0 0 0 0.388235 0 0 0 0 0.388235 0 0 0 1 0"/>
<feBlend mode="normal" in2="effect2_innerShadow" result="effect3_innerShadow"/>
</filter>
<filter id="filter5_iii" x="0" y="168.785" width="3.44276" height="36.6975" filterUnits="userSpaceOnUse" color-interpolation-filters="sRGB">
<feFlood flood-opacity="0" result="BackgroundImageFix"/>
<feBlend mode="normal" in="SourceGraphic" in2="BackgroundImageFix" result="shape"/>
<feColorMatrix in="SourceAlpha" type="matrix" values="0 0 0 0 0 0 0 0 0 0 0 0 0 0 0 0 0 0 127 0" result="hardAlpha"/>
<feOffset dx="1.33333"/>
<feComposite in2="hardAlpha" operator="arithmetic" k2="-1" k3="1"/>
<feColorMatrix type="matrix" values="0 0 0 0 1 0 0 0 0 1 0 0 0 0 1 0 0 0 0.644843 0"/>
<feBlend mode="normal" in2="shape" result="effect1_innerShadow"/>
<feColorMatrix in="SourceAlpha" type="matrix" values="0 0 0 0 0 0 0 0 0 0 0 0 0 0 0 0 0 0 127 0" result="hardAlpha"/>
<feOffset dy="2.66667"/>
<feGaussianBlur stdDeviation="0.666667"/>
<feComposite in2="hardAlpha" operator="arithmetic" k2="-1" k3="1"/>
<feColorMatrix type="matrix" values="0 0 0 0 0.384314 0 0 0 0 0.388235 0 0 0 0 0.388235 0 0 0 1 0"/>
<feBlend mode="normal" in2="effect1_innerShadow" result="effect2_innerShadow"/>
<feColorMatrix in="SourceAlpha" type="matrix" values="0 0 0 0 0 0 0 0 0 0 0 0 0 0 0 0 0 0 127 0" result="hardAlpha"/>
<feOffset dy="-2.66667"/>
<feGaussianBlur stdDeviation="0.666667"/>
<feComposite in2="hardAlpha" operator="arithmetic" k2="-1" k3="1"/>
<feColorMatrix type="matrix" values="0 0 0 0 0.384314 0 0 0 0 0.388235 0 0 0 0 0.388235 0 0 0 1 0"/>
<feBlend mode="normal" in2="effect2_innerShadow" result="effect3_innerShadow"/>
</filter>
<filter id="filter6_iii" x="444.557" y="265.206" width="3.44276" height="104.425" filterUnits="userSpaceOnUse" color-interpolation-filters="sRGB">
<feFlood flood-opacity="0" result="BackgroundImageFix"/>
<feBlend mode="normal" in="SourceGraphic" in2="BackgroundImageFix" result="shape"/>
<feColorMatrix in="SourceAlpha" type="matrix" values="0 0 0 0 0 0 0 0 0 0 0 0 0 0 0 0 0 0 127 0" result="hardAlpha"/>
<feOffset dx="1.33333"/>
<feComposite in2="hardAlpha" operator="arithmetic" k2="-1" k3="1"/>
<feColorMatrix type="matrix" values="0 0 0 0 1 0 0 0 0 1 0 0 0 0 1 0 0 0 0.644843 0"/>
<feBlend mode="normal" in2="shape" result="effect1_innerShadow"/>
<feColorMatrix in="SourceAlpha" type="matrix" values="0 0 0 0 0 0 0 0 0 0 0 0 0 0 0 0 0 0 127 0" result="hardAlpha"/>
<feOffset dy="2.66667"/>
<feGaussianBlur stdDeviation="0.666667"/>
<feComposite in2="hardAlpha" operator="arithmetic" k2="-1" k3="1"/>
<feColorMatrix type="matrix" values="0 0 0 0 0.384314 0 0 0 0 0.388235 0 0 0 0 0.388235 0 0 0 1 0"/>
<feBlend mode="normal" in2="effect1_innerShadow" result="effect2_innerShadow"/>
<feColorMatrix in="SourceAlpha" type="matrix" values="0 0 0 0 0 0 0 0 0 0 0 0 0 0 0 0 0 0 127 0" result="hardAlpha"/>
<feOffset dy="-2.66667"/>
<feGaussianBlur stdDeviation="0.666667"/>
<feComposite in2="hardAlpha" operator="arithmetic" k2="-1" k3="1"/>
<feColorMatrix type="matrix" values="0 0 0 0 0.384314 0 0 0 0 0.388235 0 0 0 0 0.388235 0 0 0 1 0"/>
<feBlend mode="normal" in2="effect2_innerShadow" result="effect3_innerShadow"/>
</filter>
<filter id="filter7_i" x="266.984" y="33.2448" width="6.38002" height="8.09247" filterUnits="userSpaceOnUse" color-interpolation-filters="sRGB">
<feFlood flood-opacity="0" result="BackgroundImageFix"/>
<feBlend mode="normal" in="SourceGraphic" in2="BackgroundImageFix" result="shape"/>
<feColorMatrix in="SourceAlpha" type="matrix" values="0 0 0 0 0 0 0 0 0 0 0 0 0 0 0 0 0 0 127 0" result="hardAlpha"/>
<feOffset dy="2.33333"/>
<feGaussianBlur stdDeviation="1"/>
<feComposite in2="hardAlpha" operator="arithmetic" k2="-1" k3="1"/>
<feColorMatrix type="matrix" values="0 0 0 0 0 0 0 0 0 0 0 0 0 0 0 0 0 0 0.792969 0"/>
<feBlend mode="normal" in2="shape" result="effect1_innerShadow"/>
</filter>
<filter id="filter8_diiii" x="264.897" y="32.7817" width="10.5533" height="10.2653" filterUnits="userSpaceOnUse" color-interpolation-filters="sRGB">
<feFlood flood-opacity="0" result="BackgroundImageFix"/>
<feColorMatrix in="SourceAlpha" type="matrix" values="0 0 0 0 0 0 0 0 0 0 0 0 0 0 0 0 0 0 127 0"/>
<feOffset dy="1.33333"/>
<feGaussianBlur stdDeviation="1.33333"/>
<feColorMatrix type="matrix" values="0 0 0 0 0 0 0 0 0 0 0 0 0 0 0 0 0 0 0.558707 0"/>
<feBlend mode="normal" in2="BackgroundImageFix" result="effect1_dropShadow"/>
<feBlend mode="normal" in="SourceGraphic" in2="effect1_dropShadow" result="shape"/>
<feColorMatrix in="SourceAlpha" type="matrix" values="0 0 0 0 0 0 0 0 0 0 0 0 0 0 0 0 0 0 127 0" result="hardAlpha"/>
<feOffset dy="2"/>
<feGaussianBlur stdDeviation="2.33333"/>
<feComposite in2="hardAlpha" operator="arithmetic" k2="-1" k3="1"/>
<feColorMatrix type="matrix" values="0 0 0 0 0 0 0 0 0 0 0 0 0 0 0 0 0 0 0.5 0"/>
<feBlend mode="normal" in2="shape" result="effect2_innerShadow"/>
<feColorMatrix in="SourceAlpha" type="matrix" values="0 0 0 0 0 0 0 0 0 0 0 0 0 0 0 0 0 0 127 0" result="hardAlpha"/>
<feOffset/>
<feGaussianBlur stdDeviation="1"/>
<feComposite in2="hardAlpha" operator="arithmetic" k2="-1" k3="1"/>
<feColorMatrix type="matrix" values="0 0 0 0 0.159339 0 0 0 0 0.154934 0 0 0 0 0.535213 0 0 0 0.68266 0"/>
<feBlend mode="normal" in2="effect2_innerShadow" result="effect3_innerShadow"/>
<feColorMatrix in="SourceAlpha" type="matrix" values="0 0 0 0 0 0 0 0 0 0 0 0 0 0 0 0 0 0 127 0" result="hardAlpha"/>
<feOffset dy="-0.666667"/>
<feGaussianBlur stdDeviation="0.666667"/>
<feComposite in2="hardAlpha" operator="arithmetic" k2="-1" k3="1"/>
<feColorMatrix type="matrix" values="0 0 0 0 1 0 0 0 0 1 0 0 0 0 1 0 0 0 0.28275 0"/>
<feBlend mode="normal" in2="effect3_innerShadow" result="effect4_innerShadow"/>
<feColorMatrix in="SourceAlpha" type="matrix" values="0 0 0 0 0 0 0 0 0 0 0 0 0 0 0 0 0 0 127 0" result="hardAlpha"/>
<feOffset dy="1.33333"/>
<feGaussianBlur stdDeviation="0.666667"/>
<feComposite in2="hardAlpha" operator="arithmetic" k2="-1" k3="1"/>
<feColorMatrix type="matrix" values="0 0 0 0 0.013651 0 0 0 0 0.102693 0 0 0 0 0.720731 0 0 0 0.609621 0"/>
<feBlend mode="normal" in2="effect4_innerShadow" result="effect5_innerShadow"/>
</filter>
<filter id="filter9_di" x="266.347" y="32.7806" width="7.65334" height="5.91347" filterUnits="userSpaceOnUse" color-interpolation-filters="sRGB">
<feFlood flood-opacity="0" result="BackgroundImageFix"/>
<feColorMatrix in="SourceAlpha" type="matrix" values="0 0 0 0 0 0 0 0 0 0 0 0 0 0 0 0 0 0 127 0"/>
<feOffset dy="1.33333"/>
<feGaussianBlur stdDeviation="1.33333"/>
<feColorMatrix type="matrix" values="0 0 0 0 0 0 0 0 0 0 0 0 0 0 0 0 0 0 0.311736 0"/>
<feBlend mode="normal" in2="BackgroundImageFix" result="effect1_dropShadow"/>
<feBlend mode="normal" in="SourceGraphic" in2="effect1_dropShadow" result="shape"/>
<feColorMatrix in="SourceAlpha" type="matrix" values="0 0 0 0 0 0 0 0 0 0 0 0 0 0 0 0 0 0 127 0" result="hardAlpha"/>
<feOffset dy="0.666667"/>
<feGaussianBlur stdDeviation="0.666667"/>
<feComposite in2="hardAlpha" operator="arithmetic" k2="-1" k3="1"/>
<feColorMatrix type="matrix" values="0 0 0 0 1 0 0 0 0 1 0 0 0 0 1 0 0 0 0.5 0"/>
<feBlend mode="normal" in2="shape" result="effect2_innerShadow"/>
</filter>
<filter id="filter10_di" x="266.636" y="36.5525" width="7.07334" height="5.91347" filterUnits="userSpaceOnUse" color-interpolation-filters="sRGB">
<feFlood flood-opacity="0" result="BackgroundImageFix"/>
<feColorMatrix in="SourceAlpha" type="matrix" values="0 0 0 0 0 0 0 0 0 0 0 0 0 0 0 0 0 0 127 0"/>
<feOffset dy="1.33333"/>
<feGaussianBlur stdDeviation="1.33333"/>
<feColorMatrix type="matrix" values="0 0 0 0 0 0 0 0 0 0 0 0 0 0 0 0 0 0 0.311736 0"/>
<feBlend mode="normal" in2="BackgroundImageFix" result="effect1_dropShadow"/>
<feBlend mode="normal" in="SourceGraphic" in2="effect1_dropShadow" result="shape"/>
<feColorMatrix in="SourceAlpha" type="matrix" values="0 0 0 0 0 0 0 0 0 0 0 0 0 0 0 0 0 0 127 0" result="hardAlpha"/>
<feOffset/>
<feGaussianBlur stdDeviation="0.666667"/>
<feComposite in2="hardAlpha" operator="arithmetic" k2="-1" k3="1"/>
<feColorMatrix type="matrix" values="0 0 0 0 1 0 0 0 0 1 0 0 0 0 1 0 0 0 0.5 0"/>
<feBlend mode="normal" in2="shape" result="effect2_innerShadow"/>
</filter>
<filter id="filter11_d" x="265.014" y="31.2743" width="10.32" height="10.0313" filterUnits="userSpaceOnUse" color-interpolation-filters="sRGB">
<feFlood flood-opacity="0" result="BackgroundImageFix"/>
<feColorMatrix in="SourceAlpha" type="matrix" values="0 0 0 0 0 0 0 0 0 0 0 0 0 0 0 0 0 0 127 0"/>
<feOffset/>
<feGaussianBlur stdDeviation="2"/>
<feColorMatrix type="matrix" values="0 0 0 0 0 0 0 0 0 0 0 0 0 0 0 0 0 0 0.5 0"/>
<feBlend mode="normal" in2="BackgroundImageFix" result="effect1_dropShadow"/>
<feBlend mode="normal" in="SourceGraphic" in2="effect1_dropShadow" result="shape"/>
</filter>
<filter id="filter12_d" x="265.303" y="31.2743" width="10.03" height="10.0313" filterUnits="userSpaceOnUse" color-interpolation-filters="sRGB">
<feFlood flood-opacity="0" result="BackgroundImageFix"/>
<feColorMatrix in="SourceAlpha" type="matrix" values="0 0 0 0 0 0 0 0 0 0 0 0 0 0 0 0 0 0 127 0"/>
<feOffset/>
<feGaussianBlur stdDeviation="2"/>
<feColorMatrix type="matrix" values="0 0 0 0 0 0 0 0 0 0 0 0 0 0 0 0 0 0 0.5 0"/>
<feBlend mode="normal" in2="BackgroundImageFix" result="effect1_dropShadow"/>
<feBlend mode="normal" in="SourceGraphic" in2="effect1_dropShadow" result="shape"/>
</filter>
<filter id="filter13_ii" x="269.303" y="35.5648" width="1.74001" height="3.74108" filterUnits="userSpaceOnUse" color-interpolation-filters="sRGB">
<feFlood flood-opacity="0" result="BackgroundImageFix"/>
<feBlend mode="normal" in="SourceGraphic" in2="BackgroundImageFix" result="shape"/>
<feColorMatrix in="SourceAlpha" type="matrix" values="0 0 0 0 0 0 0 0 0 0 0 0 0 0 0 0 0 0 127 0" result="hardAlpha"/>
<feOffset dy="2"/>
<feGaussianBlur stdDeviation="2.33333"/>
<feComposite in2="hardAlpha" operator="arithmetic" k2="-1" k3="1"/>
<feColorMatrix type="matrix" values="0 0 0 0 0 0 0 0 0 0 0 0 0 0 0 0 0 0 0.5 0"/>
<feBlend mode="normal" in2="shape" result="effect1_innerShadow"/>
<feColorMatrix in="SourceAlpha" type="matrix" values="0 0 0 0 0 0 0 0 0 0 0 0 0 0 0 0 0 0 127 0" result="hardAlpha"/>
<feOffset dy="1.33333"/>
<feGaussianBlur stdDeviation="0.666667"/>
<feComposite in2="hardAlpha" operator="arithmetic" k2="-1" k3="1"/>
<feColorMatrix type="matrix" values="0 0 0 0 0.176471 0 0 0 0 0.329412 0 0 0 0 0.317647 0 0 0 0.254642 0"/>
<feBlend mode="normal" in2="effect1_innerShadow" result="effect2_innerShadow"/>
</filter>
<filter id="filter14_f" x="266.039" y="33.172" width="8.26687" height="7.68716" filterUnits="userSpaceOnUse" color-interpolation-filters="sRGB">
<feFlood flood-opacity="0" result="BackgroundImageFix"/>
<feBlend mode="normal" in="SourceGraphic" in2="BackgroundImageFix" result="shape"/>
<feGaussianBlur stdDeviation="1.77686" result="effect1_foregroundBlur"/>
</filter>
<filter id="filter15_di" x="267.883" y="36.0584" width="4.58043" height="4.29022" filterUnits="userSpaceOnUse" color-interpolation-filters="sRGB">
<feFlood flood-opacity="0" result="BackgroundImageFix"/>
<feColorMatrix in="SourceAlpha" type="matrix" values="0 0 0 0 0 0 0 0 0 0 0 0 0 0 0 0 0 0 127 0"/>
<feOffset dy="1.33333"/>
<feGaussianBlur stdDeviation="1"/>
<feColorMatrix type="matrix" values="0 0 0 0 0 0 0 0 0 0 0 0 0 0 0 0 0 0 0.311736 0"/>
<feBlend mode="normal" in2="BackgroundImageFix" result="effect1_dropShadow"/>
<feBlend mode="normal" in="SourceGraphic" in2="effect1_dropShadow" result="shape"/>
<feColorMatrix in="SourceAlpha" type="matrix" values="0 0 0 0 0 0 0 0 0 0 0 0 0 0 0 0 0 0 127 0" result="hardAlpha"/>
<feOffset/>
<feGaussianBlur stdDeviation="0.666667"/>
<feComposite in2="hardAlpha" operator="arithmetic" k2="-1" k3="1"/>
<feColorMatrix type="matrix" values="0 0 0 0 1 0 0 0 0 1 0 0 0 0 1 0 0 0 0.5 0"/>
<feBlend mode="normal" in2="shape" result="effect2_innerShadow"/>
</filter>
<filter id="filter16_di" x="268.259" y="35.5648" width="3.53623" height="3.24638" filterUnits="userSpaceOnUse" color-interpolation-filters="sRGB">
<feFlood flood-opacity="0" result="BackgroundImageFix"/>
<feColorMatrix in="SourceAlpha" type="matrix" values="0 0 0 0 0 0 0 0 0 0 0 0 0 0 0 0 0 0 127 0"/>
<feOffset dy="1.33333"/>
<feGaussianBlur stdDeviation="0.666667"/>
<feColorMatrix type="matrix" values="0 0 0 0 0 0 0 0 0 0 0 0 0 0 0 0 0 0 0.311736 0"/>
<feBlend mode="normal" in2="BackgroundImageFix" result="effect1_dropShadow"/>
<feBlend mode="normal" in="SourceGraphic" in2="effect1_dropShadow" result="shape"/>
<feColorMatrix in="SourceAlpha" type="matrix" values="0 0 0 0 0 0 0 0 0 0 0 0 0 0 0 0 0 0 127 0" result="hardAlpha"/>
<feOffset dy="0.666667"/>
<feGaussianBlur stdDeviation="0.666667"/>
<feComposite in2="hardAlpha" operator="arithmetic" k2="-1" k3="1"/>
<feColorMatrix type="matrix" values="0 0 0 0 1 0 0 0 0 1 0 0 0 0 1 0 0 0 0.5 0"/>
<feBlend mode="normal" in2="shape" result="effect2_innerShadow"/>
</filter>
<filter id="filter17_f" x="261.073" y="28.7852" width="17.9101" height="17.6204" filterUnits="userSpaceOnUse" color-interpolation-filters="sRGB">
<feFlood flood-opacity="0" result="BackgroundImageFix"/>
<feBlend mode="normal" in="SourceGraphic" in2="BackgroundImageFix" result="shape"/>
<feGaussianBlur stdDeviation="4.11502" result="effect1_foregroundBlur"/>
</filter>
<filter id="filter18_d" x="194.679" y="33.3408" width="57.0955" height="9.7469" filterUnits="userSpaceOnUse" color-interpolation-filters="sRGB">
<feFlood flood-opacity="0" result="BackgroundImageFix"/>
<feColorMatrix in="SourceAlpha" type="matrix" values="0 0 0 0 0 0 0 0 0 0 0 0 0 0 0 0 0 0 127 0"/>
<feOffset dy="1.33333"/>
<feGaussianBlur stdDeviation="0.666667"/>
<feColorMatrix type="matrix" values="0 0 0 0 1 0 0 0 0 1 0 0 0 0 1 0 0 0 0.217589 0"/>
<feBlend mode="normal" in2="BackgroundImageFix" result="effect1_dropShadow"/>
<feBlend mode="normal" in="SourceGraphic" in2="effect1_dropShadow" result="shape"/>
</filter>
<linearGradient id="paint0_linear" x1="10.1035" y1="7.85416" x2="10.1035" y2="886.799" gradientUnits="userSpaceOnUse">
<stop stop-color="#5F5F5F"/>
<stop offset="0.0101238" stop-color="#222222"/>
<stop offset="1" stop-color="#252525"/>
</linearGradient>
<linearGradient id="paint1_linear" x1="14.2344" y1="11.9871" x2="14.2344" y2="881.288" gradientUnits="userSpaceOnUse">
<stop stop-color="#6D6D6D"/>
<stop offset="0.0161168"/>
<stop offset="0.984697"/>
<stop offset="1" stop-color="#5C5C5C"/>
</linearGradient>
<linearGradient id="paint2_linear" x1="276.419" y1="42.9737" x2="276.419" y2="30.5748" gradientUnits="userSpaceOnUse">
<stop stop-color="#1F1F1F"/>
<stop offset="1" stop-color="#0F0F0F"/>
</linearGradient>
<radialGradient id="paint3_radial" cx="0" cy="0" r="1" gradientUnits="userSpaceOnUse" gradientTransform="translate(269.032 38.868) rotate(104.437) scale(4.75579 4.15623)">
<stop stop-color="#154882"/>
<stop offset="1"/>
</radialGradient>
<radialGradient id="paint4_radial" cx="0" cy="0" r="1" gradientUnits="userSpaceOnUse" gradientTransform="translate(270.173 34.8504) rotate(90) scale(4.48499 7.76155)">
<stop stop-color="#376CAB"/>
<stop offset="0.377337" stop-color="#151515"/>
<stop offset="0.536693"/>
<stop offset="1" stop-color="#0D7BB9"/>
</radialGradient>
<radialGradient id="paint5_radial" cx="0" cy="0" r="1" gradientUnits="userSpaceOnUse" gradientTransform="translate(270.174 35.5513) rotate(90) scale(1.16867 1.16777)">
<stop stop-color="#694B8D"/>
<stop offset="1" stop-opacity="0.01"/>
</radialGradient>
<radialGradient id="paint6_radial" cx="0" cy="0" r="1" gradientUnits="userSpaceOnUse" gradientTransform="translate(271.622 38.1626) rotate(90) scale(1.16867 1.16777)">
<stop stop-color="#80C2C8"/>
<stop offset="1" stop-opacity="0.01"/>
</radialGradient>
<radialGradient id="paint7_radial" cx="0" cy="0" r="1" gradientUnits="userSpaceOnUse" gradientTransform="translate(270.173 35.7841) rotate(90) scale(1.81084 3.11979)">
<stop stop-color="#61737F"/>
<stop offset="0.387832"/>
<stop offset="1" stop-color="#227EB1"/>
</radialGradient>
<radialGradient id="paint8_radial" cx="0" cy="0" r="1" gradientUnits="userSpaceOnUse" gradientTransform="translate(269.789 37.3077) rotate(90) scale(1.89839 1.89763)">
<stop stop-color="white"/>
<stop offset="1" stop-opacity="0.01"/>
</radialGradient>
</defs>
</svg>
