<?xml version="1.0" encoding="utf-8"?>
<!-- Generator: Adobe Illustrator 16.0.0, SVG Export Plug-In . SVG Version: 6.00 Build 0)  -->
<!DOCTYPE svg PUBLIC "-//W3C//DTD SVG 1.1//EN" "http://www.w3.org/Graphics/SVG/1.1/DTD/svg11.dtd">
<svg version="1.1" id="Layer_1" xmlns="http://www.w3.org/2000/svg" xmlns:xlink="http://www.w3.org/1999/xlink" x="0px" y="0px"
	 width="1408px" height="1280px" viewBox="0 0 1408 1280" enable-background="new 0 0 1408 1280" xml:space="preserve">
<g id="XMLID_1_">
	<g>
		<path fill="#ADADAD" d="M889.523,26.705c418.573,218.085,599.643,711.438,436.776,1142.083l-182.43,80.15l-19.188,8.197
			c114.687-309.146,118.96-821.546-422.477-1103.652l20.797-14.791L886.738,27.271L889.523,26.705z"/>
		<path fill="#8144E2" d="M702.205,153.482c541.437,282.106,537.164,794.506,422.477,1103.652L27.042,949.969l674.99-796.574
			L702.205,153.482z"/>
	</g>
	<g>
		<path fill="none" stroke="#000000" stroke-width="19" stroke-miterlimit="10" d="M702.205,153.482l20.797-14.791L886.738,27.271
			l2.786-0.566c418.573,218.085,599.643,711.438,436.776,1142.083l-182.43,80.15l-19.188,8.197
			C1239.369,947.988,1243.642,435.589,702.205,153.482z"/>
		<polyline fill="none" stroke="#000000" stroke-width="19" stroke-miterlimit="10" points="1124.682,1257.135 27.042,949.969 
			702.031,153.395 		"/>
	</g>
</g>
<ellipse transform="matrix(0.6465 -0.7629 0.7629 0.6465 -562.775 585.625)" stroke="#000000" stroke-width="19" stroke-miterlimit="10" cx="350.536" cy="900.079" rx="9.968" ry="21.929"/>
<ellipse transform="matrix(0.6465 -0.7629 0.7629 0.6465 -433.6099 659.5123)" stroke="#000000" stroke-width="19" stroke-miterlimit="10" cx="494.829" cy="797.635" rx="9.967" ry="21.928"/>
<ellipse transform="matrix(0.6465 -0.7629 0.7629 0.6465 -309.0107 817.7586)" stroke="#000000" stroke-width="19" stroke-miterlimit="10" cx="727.882" cy="742.312" rx="9.967" ry="21.929"/>
<ellipse transform="matrix(0.6465 -0.7629 0.7629 0.6465 -501.3191 1031.21)" stroke="#000000" stroke-width="19" stroke-miterlimit="10" cx="862.048" cy="1056.544" rx="9.967" ry="21.929"/>
<ellipse transform="matrix(0.6465 -0.7629 0.7629 0.6465 27.2515 633.9894)" stroke="#000000" stroke-width="19" stroke-miterlimit="10" cx="697.737" cy="287.589" rx="9.968" ry="21.929"/>
<ellipse transform="matrix(0.6465 -0.7629 0.7629 0.6465 -122.5482 669.6266)" stroke="#000000" stroke-width="19" stroke-miterlimit="10" cx="661.292" cy="467.05" rx="9.968" ry="21.929"/>
<ellipse transform="matrix(0.6465 -0.7629 0.7629 0.6465 -479.4409 857.2507)" stroke="#000000" stroke-width="19" stroke-miterlimit="10" cx="685.302" cy="945.97" rx="9.968" ry="21.929"/>
<ellipse transform="matrix(0.6465 -0.7629 0.7629 0.6465 -370.2693 524.3792)" stroke="#000000" stroke-width="19" stroke-miterlimit="10" cx="380.701" cy="661.731" rx="9.968" ry="21.929"/>
<ellipse transform="matrix(0.6465 -0.7629 0.7629 0.6465 -128.3649 1012.2854)" stroke="#000000" stroke-width="19" stroke-miterlimit="10" cx="1028.158" cy="644.659" rx="9.968" ry="21.928"/>
<ellipse transform="matrix(0.6465 -0.7629 0.7629 0.6465 -251.1476 576.3521)" stroke="#000000" stroke-width="19" stroke-miterlimit="10" cx="496.343" cy="559.179" rx="9.968" ry="21.929"/>
<ellipse transform="matrix(0.6465 -0.7629 0.7629 0.6465 -288.3306 968.2333)" stroke="#000000" stroke-width="19" stroke-miterlimit="10" cx="900.571" cy="795.229" rx="9.968" ry="21.927"/>
<ellipse transform="matrix(0.6465 -0.7629 0.7629 0.6465 -555.7402 711.4553)" stroke="#000000" stroke-width="19" stroke-miterlimit="10" cx="489.831" cy="955.403" rx="9.968" ry="21.927"/>
<ellipse transform="matrix(0.6465 -0.7629 0.7629 0.6465 13.1378 849.212)" stroke="#000000" stroke-width="19" stroke-miterlimit="10" cx="922.879" cy="410.43" rx="9.968" ry="21.928"/>
<ellipse transform="matrix(0.6465 -0.7629 0.7629 0.6465 -368.265 1095.6929)" stroke="#000000" stroke-width="19" stroke-miterlimit="10" cx="998.183" cy="945.226" rx="9.968" ry="21.927"/>
<ellipse transform="matrix(0.6465 -0.7629 0.7629 0.6465 -155.7952 821.7332)" stroke="#000000" stroke-width="19" stroke-miterlimit="10" cx="808.8" cy="578.979" rx="9.968" ry="21.928"/>
<ellipse transform="matrix(0.6465 -0.7629 0.7629 0.6465 -520.5089 463.8546)" stroke="#000000" stroke-width="19" stroke-miterlimit="10" cx="240.25" cy="793.563" rx="9.968" ry="21.927"/>
<ellipse transform="matrix(0.6465 -0.7629 0.7629 0.6465 -258.9869 699.4113)" stroke="#000000" stroke-width="19" stroke-miterlimit="10" cx="625.18" cy="629.156" rx="9.968" ry="21.93"/>
<ellipse transform="matrix(0.6465 -0.7629 0.7629 0.6465 -496.521 1182.5061)" stroke="#000000" stroke-width="19" stroke-miterlimit="10" cx="1027.7" cy="1127.015" rx="9.967" ry="21.93"/>
<ellipse transform="matrix(0.6465 -0.7629 0.7629 0.6465 -640.7686 480.6576)" stroke="#000000" stroke-width="19" stroke-miterlimit="10" cx="198.273" cy="931.755" rx="9.968" ry="21.929"/>
</svg>
